<?xml version="1.0" encoding="UTF-8" standalone="no"?>
<!DOCTYPE svg PUBLIC "-//W3C//DTD SVG 1.1//EN" "http://www.w3.org/Graphics/SVG/1.1/DTD/svg11.dtd">
<svg width="100%" height="100%" viewBox="0 0 1667 1667" version="1.1" xmlns="http://www.w3.org/2000/svg" xmlns:xlink="http://www.w3.org/1999/xlink" xml:space="preserve" xmlns:serif="http://www.serif.com/" style="fill-rule:evenodd;clip-rule:evenodd;stroke-linejoin:round;stroke-miterlimit:2;">
    <rect x="0" y="0" width="1666.67" height="1666.67"/>
    <path d="M1666.67,0L0,0L0,1666.67L1666.67,1666.67L1666.67,0ZM1414.28,827.104C1414.28,827.104 1517.41,731.342 1512.5,626.987L1506.35,618.392C1506.35,618.392 1467.07,641.721 1440.06,636.808L1424.1,646.629C1424.1,646.629 1410.6,635.579 1387.27,653.996C1387.27,653.996 1367.63,622.075 1345.53,631.896L1360.26,617.167C1360.26,617.167 1351.66,587.7 1282.91,553.325C1282.91,553.325 1269.41,538.592 1250.99,494.392L1223.98,477.204C1223.98,477.204 1220.3,451.425 1216.62,424.413C1216.62,424.413 1201.88,404.771 1185.92,403.542C1185.92,403.542 1183.47,392.496 1182.24,369.167C1182.24,369.167 1168.74,367.942 1149.09,324.971C1149.09,324.971 1125.77,284.454 1119.63,280.771L1109.81,262.354L1114.72,254.992C1114.72,254.992 1136.82,291.821 1152.78,297.958C1152.78,297.958 1173.65,272.179 1151.55,227.979C1151.55,227.979 1128.22,239.029 1096.3,223.071C1096.3,223.071 1065.61,229.208 1052.1,239.029C1052.1,239.029 1041.06,227.979 1017.73,235.346C1017.73,235.346 1025.1,218.158 957.571,221.842L977.213,216.929L936.7,209.563C936.7,209.563 941.608,205.883 937.929,198.517C934.246,191.15 888.817,187.467 872.858,220.612C872.858,220.612 890.046,237.804 863.038,247.625C863.038,247.625 828.663,225.525 801.654,227.979C801.654,227.979 788.146,215.704 788.146,203.425C788.146,203.425 766.05,191.15 743.95,198.517C743.95,198.517 730.446,176.417 710.8,183.783C710.8,183.783 683.792,169.05 716.938,151.862C716.938,151.862 723.079,134.675 704.663,124.854C704.663,124.854 715.713,123.625 716.938,107.662C716.938,107.662 693.613,96.613 673.971,113.804C673.971,113.804 654.329,100.3 619.95,115.029C619.95,115.029 567.158,94.158 521.733,122.396L499.638,122.396C499.638,122.396 459.121,150.633 421.063,111.35C421.063,111.35 405.1,116.258 394.05,140.813C394.05,140.813 362.133,162.912 337.579,169.05C337.579,169.05 315.479,191.15 317.933,218.158C317.933,218.158 293.379,247.625 254.092,254.992C254.092,254.992 235.679,267.267 230.767,285.683C230.767,285.683 207.442,285.683 193.933,323.742C193.933,323.742 150.967,358.117 139.917,390.038C139.917,390.038 168.154,444.058 107.996,527.542L122.729,553.325L111.679,582.787C111.679,582.787 162.013,599.979 179.204,689.6C179.204,689.6 222.171,720.292 276.192,758.35C276.192,758.35 375.638,728.887 407.558,755.896C407.558,755.896 547.517,681.004 564.704,762.033C564.704,762.033 563.475,775.537 628.546,759.579C628.546,759.579 670.288,785.362 640.821,827.104C640.821,827.104 646.963,850.429 631,871.3C631,871.3 637.138,890.946 637.138,894.625C637.138,894.625 725.533,978.112 724.308,1033.36L715.713,1040.72C715.713,1040.72 740.267,1086.15 731.675,1107.02C723.079,1127.89 697.296,1113.16 696.071,1222.42C696.071,1222.42 752.542,1302.23 752.542,1329.24C752.542,1329.24 743.95,1396.76 788.146,1438.5C788.146,1438.5 812.7,1483.93 812.7,1492.53C812.7,1492.53 834.8,1506.03 817.613,1524.45C817.613,1524.45 821.292,1560.05 854.442,1562.5C854.442,1562.5 893.729,1541.63 940.383,1552.68C987.038,1563.73 1039.83,1508.48 1064.38,1467.97L1093.85,1445.87C1093.85,1445.87 1118.4,1413.95 1103.67,1393.08C1103.67,1393.08 1109.81,1375.89 1127,1373.43C1127,1373.43 1184.7,1373.43 1161.38,1288.72C1161.38,1288.72 1139.28,1273.99 1189.61,1251.89C1189.61,1251.89 1205.57,1242.07 1210.48,1228.57C1210.48,1228.57 1279.23,1213.83 1286.6,1172.09C1286.6,1172.09 1285.37,1118.07 1285.37,1102.11C1285.37,1102.11 1305.01,1088.6 1273.09,1075.1C1273.09,1075.1 1275.55,1055.46 1260.82,1041.95C1260.82,1041.95 1285.37,1014.94 1257.13,998.983C1257.13,998.983 1266.95,940.054 1324.66,897.083C1324.66,897.083 1362.72,836.925 1414.28,827.104ZM1455.48,1138.15C1455.48,1138.15 1426.18,1192.78 1370.76,1203.86C1370.76,1203.86 1348.6,1206.24 1347.01,1230.78C1347.01,1230.78 1360.48,1273.53 1337.51,1297.28C1337.51,1297.28 1317.72,1316.29 1328.02,1354.29C1328.02,1354.29 1320.1,1374.87 1331.98,1388.33C1331.98,1388.33 1346.23,1397.04 1347.01,1401.79C1347.01,1401.79 1374.73,1385.95 1388.18,1388.33C1388.18,1388.33 1421.44,1315.49 1445.19,1254.53C1445.19,1254.53 1463.4,1225.24 1466.56,1192.78L1472.11,1205.45C1472.11,1205.45 1495.86,1178.53 1466.56,1131.03C1466.56,1131.03 1456.27,1128.65 1455.48,1138.15Z" style="fill:rgb(56,169,185);"/>
</svg>
